<?xml version="1.0" encoding="UTF-8" standalone="no"?>
<svg
   xmlns:dc="http://purl.org/dc/elements/1.1/"
   xmlns:cc="http://creativecommons.org/ns#"
   xmlns:rdf="http://www.w3.org/1999/02/22-rdf-syntax-ns#"
   xmlns:svg="http://www.w3.org/2000/svg"
   xmlns="http://www.w3.org/2000/svg"
   xmlns:sodipodi="http://sodipodi.sourceforge.net/DTD/sodipodi-0.dtd"
   xmlns:inkscape="http://www.inkscape.org/namespaces/inkscape"
   enable-background="new 0 0 512 512"
   height="512px"
   id="Layer_1"
   version="1.1"
   viewBox="0 0 512 512"
   width="512px"
   xml:space="preserve"
   sodipodi:docname="2.svg"
   inkscape:version="0.92.3 (2405546, 2018-03-11)"><metadata
     id="metadata27"><rdf:RDF><cc:Work
         rdf:about=""><dc:format>image/svg+xml</dc:format><dc:type
           rdf:resource="http://purl.org/dc/dcmitype/StillImage" /></cc:Work></rdf:RDF></metadata><defs
     id="defs25" /><sodipodi:namedview
     pagecolor="#ffffff"
     bordercolor="#666666"
     borderopacity="1"
     objecttolerance="10"
     gridtolerance="10"
     guidetolerance="10"
     inkscape:pageopacity="0"
     inkscape:pageshadow="2"
     inkscape:window-width="1323"
     inkscape:window-height="744"
     id="namedview23"
     showgrid="false"
     inkscape:zoom="0.4609375"
     inkscape:cx="256"
     inkscape:cy="256"
     inkscape:window-x="43"
     inkscape:window-y="24"
     inkscape:window-maximized="1"
     inkscape:current-layer="Layer_1" /><path
     style="fill:none;stroke:#000000;stroke-width:20;stroke-linecap:butt;stroke-linejoin:miter;stroke-miterlimit:4;stroke-dasharray:none;stroke-opacity:1"
     d="M 191.72881,340.47457 C 145.46572,336.15459 165.65507,377.33234 74.444257,351.53355 46.207205,343.54676 45.944381,273.66828 52.813008,263.08928 122.99612,154.99384 122.7081,242.92211 148.33898,218.98304 151.11926,180.34964 114.71276,149.1298 121.11503,124.33862 149.96087,12.640467 252.27232,31.44471 304.89569,90.66911 c 18.08584,20.3545 21.18638,87.43866 38.69753,104.44953 182.67438,39.22821 98.2996,90.59501 34.71187,141.01695 -86.2831,39.99193 -125.9335,5.37155 -186.57628,4.33898 z"
     id="path4546"
     inkscape:connector-curvature="0"
     sodipodi:nodetypes="csscssccc" /><path
     style="fill:none;stroke:#000000;stroke-width:20;stroke-linecap:butt;stroke-linejoin:miter;stroke-miterlimit:4;stroke-dasharray:none;stroke-opacity:1"
     d="m 65.898305,394.71186 c -42.702892,6.5934 0,62.07956 0,0 z"
     id="path4548"
     inkscape:connector-curvature="0" /><path
     style="fill:none;stroke:#000000;stroke-width:20;stroke-linecap:butt;stroke-linejoin:miter;stroke-miterlimit:4;stroke-dasharray:none;stroke-opacity:1"
     d="m 186.07456,404.87408 c -42.70289,6.5934 0,62.07956 0,0 z"
     id="path4548-3"
     inkscape:connector-curvature="0" /><path
     style="fill:none;stroke:#000000;stroke-width:20;stroke-linecap:butt;stroke-linejoin:miter;stroke-miterlimit:4;stroke-dasharray:none;stroke-opacity:1"
     d="m 303.2271,404.87408 c -42.70289,6.5934 0,62.07956 0,0 z"
     id="path4548-6"
     inkscape:connector-curvature="0" /><path
     style="fill:none;stroke:#000000;stroke-width:20;stroke-linecap:butt;stroke-linejoin:miter;stroke-miterlimit:4;stroke-dasharray:none;stroke-opacity:1"
     d="m 407.36269,385.34866 c -42.70289,6.5934 0,62.07956 0,0 z"
     id="path4548-7"
     inkscape:connector-curvature="0" /><path
     style="fill:none;stroke:#000000;stroke-width:20;stroke-linecap:butt;stroke-linejoin:miter;stroke-miterlimit:4;stroke-dasharray:none;stroke-opacity:1"
     d="m 216.44744,354.97578 c -42.70289,6.5934 0,62.07956 0,0 z"
     id="path4548-5"
     inkscape:connector-curvature="0" /><path
     style="fill:none;stroke:#000000;stroke-width:20;stroke-linecap:butt;stroke-linejoin:miter;stroke-miterlimit:4;stroke-dasharray:none;stroke-opacity:1"
     d="m 240.31185,446.09442 c -42.70289,6.5934 0,62.07956 0,0 z"
     id="path4548-35"
     inkscape:connector-curvature="0" /><path
     style="fill:none;stroke:#000000;stroke-width:20;stroke-linecap:butt;stroke-linejoin:miter;stroke-miterlimit:4;stroke-dasharray:none;stroke-opacity:1"
     d="m 118.82032,461.28086 c -42.70289,6.5934 0,62.07956 0,0 z"
     id="path4548-62"
     inkscape:connector-curvature="0" /><path
     style="fill:none;stroke:#000000;stroke-width:20;stroke-linecap:butt;stroke-linejoin:miter;stroke-miterlimit:4;stroke-dasharray:none;stroke-opacity:1"
     d="m 344.44744,439.58595 c -42.70289,6.5934 0,62.07956 0,0 z"
     id="path4548-9"
     inkscape:connector-curvature="0" /></svg>